PathFileType	4	(X/Y/Z)	OpenSim_Sub07_CSStiffKnee_Magnet.trc
DataRate	CameraRate	NumFrames	NumMarkers	Units	OrigDataRate	OrigDataStartFrame	OrigNumFrames
100	100	30	8	m	100	5893	6734
Frame#	Time	torso_imu_offset_imu	pelvis_imu_offset_imu	tibia_r_imu_offset_imu	femur_r_imu_offset_imu	tibia_l_imu_offset_imu	femur_l_imu_offset_imu	toes_r_imu_offset_imu	toes_l_imu_offset_imu
				X1	Y1	Z1	X2	Y2	Z2	X3	Y3	Z3	X4	Y4	Z4	X5	Y5	Z5	X6	Y6	Z6	X7	Y7	Z7	X8		Y8	Z8	

5893	58.92000000	0.93863564	0.18769919	0.09419784	-0.66799704	0.13181598	-0.70794480	-0.44570599	-0.72925799	0.08253534	-0.69384420	-0.45178462	-0.22939691	-0.77769509	0.28696061	0.12860285	-0.64444815	-0.24799063	0.25267715	-0.82956800	-0.37129409	-0.32755373	-0.61425620	-0.27958753	-0.51653784
5894	58.93000000	0.94287967	0.19026092	0.09315481	-0.66558700	0.13353604	-0.70628630	-0.43518514	-0.73374132	0.08460086	-0.69174765	-0.45747870	-0.23264374	-0.77674338	0.28677187	0.12924356	-0.64153693	-0.25447435	0.25397005	-0.83706365	-0.36761166	-0.31399482	-0.61202277	-0.28693212	-0.50858095
5895	58.94000000	0.94381014	0.19043080	0.08767995	-0.67038012	0.14069279	-0.70426672	-0.42671758	-0.73682765	0.08831225	-0.69310480	-0.45842827	-0.23976241	-0.77795318	0.29406458	0.13052747	-0.63997648	-0.25671320	0.25564521	-0.84724080	-0.37060531	-0.30457808	-0.61405225	-0.28074875	-0.50333387
5896	58.95000000	0.93886052	0.19128018	0.08707120	-0.67528159	0.14766580	-0.70373548	-0.41497695	-0.74246462	0.08848716	-0.69117812	-0.45558194	-0.23610746	-0.77257428	0.29487517	0.13177214	-0.63811382	-0.25244710	0.25585146	-0.85078075	-0.36684220	-0.29777100	-0.62177110	-0.28176167	-0.49711125
5897	58.96000000	0.94027174	0.19853727	0.08296982	-0.67512839	0.14679573	-0.69121807	-0.40354550	-0.74898412	0.09176240	-0.69077889	-0.45719139	-0.23917781	-0.76892428	0.30124405	0.13433247	-0.64089645	-0.26002144	0.25848314	-0.85266957	-0.36633542	-0.29255889	-0.63232474	-0.27452163	-0.48572203
5898	58.97000000	0.93892080	0.19822312	0.07872396	-0.67831868	0.15237651	-0.68690354	-0.39369578	-0.76026595	0.09759898	-0.69344311	-0.45537420	-0.24936200	-0.76770080	0.30783523	0.13639205	-0.63566192	-0.25960162	0.26102032	-0.86178019	-0.35832681	-0.28091525	-0.64666474	-0.25674682	-0.47705337
5899	58.98000000	0.94025676	0.19968380	0.07157468	-0.68371339	0.15224696	-0.68373841	-0.37748360	-0.76292313	0.10345171	-0.69655222	-0.45439538	-0.25256648	-0.76350453	0.32070053	0.14345610	-0.63509216	-0.25921696	0.26616464	-0.86764220	-0.35334607	-0.26862275	-0.66046296	-0.26241024	-0.46333527
5900	58.99000000	0.93932210	0.19734528	0.07212861	-0.68917217	0.15728090	-0.68090487	-0.36089272	-0.76943674	0.10525712	-0.69039829	-0.45111821	-0.24777151	-0.75545538	0.32949668	0.14624469	-0.63314762	-0.25855437	0.26911342	-0.87433662	-0.35517123	-0.25537187	-0.67635844	-0.25403106	-0.44641952
5901	59.00000000	0.94429143	0.19827199	0.07022962	-0.69143951	0.16061837	-0.67848310	-0.35150895	-0.77930117	0.10884803	-0.69243704	-0.45437250	-0.25070695	-0.75121579	0.34021850	0.15443728	-0.62741509	-0.25445368	0.27505991	-0.88365653	-0.34524702	-0.23707293	-0.68874953	-0.23470917	-0.43230874
5902	59.01000000	0.94384495	0.20079236	0.06888457	-0.69143268	0.16299575	-0.67096280	-0.34009209	-0.78451624	0.10794862	-0.69231004	-0.45493205	-0.25602996	-0.74512728	0.34428114	0.16241594	-0.62460015	-0.25706949	0.28568771	-0.89050594	-0.33343663	-0.21711902	-0.69904157	-0.22754427	-0.41441343
5903	59.02000000	0.94074481	0.20165015	0.06053994	-0.68922819	0.16337888	-0.67585819	-0.31473351	-0.78857009	0.10387482	-0.68908483	-0.45296957	-0.25571378	-0.73995694	0.34936473	0.17056419	-0.62215937	-0.25015419	0.28088323	-0.89680263	-0.33008127	-0.19743586	-0.71229531	-0.22566534	-0.40421558
5904	59.03000000	0.94336923	0.20404887	0.05341491	-0.69754827	0.16316379	-0.67354030	-0.29991135	-0.79284981	0.10820255	-0.69279559	-0.44920056	-0.25950191	-0.73481114	0.36278703	0.16959284	-0.62372512	-0.25360211	0.28188593	-0.90492639	-0.32003348	-0.16633047	-0.71448062	-0.21553405	-0.39943128
5905	59.04000000	0.94168169	0.20827242	0.05172302	-0.70123508	0.16544497	-0.66243374	-0.28513669	-0.80082863	0.10499853	-0.69683370	-0.44023132	-0.26267671	-0.73224757	0.36999053	0.17057131	-0.62114625	-0.26305560	0.28792021	-0.90633632	-0.31367220	-0.13441043	-0.71373626	-0.20644713	-0.39867342
5906	59.05000000	0.94167649	0.20225030	0.04981473	-0.69920955	0.16096940	-0.65903893	-0.26508352	-0.80965086	0.10408926	-0.70264382	-0.43272742	-0.26016043	-0.72505677	0.37746551	0.17361775	-0.62092061	-0.27100339	0.28575985	-0.91509049	-0.31123010	-0.11030576	-0.72107229	-0.20845836	-0.39821467
5907	59.06000000	0.94079709	0.20011475	0.04661910	-0.70705912	0.15853031	-0.65790196	-0.24579725	-0.80979111	0.10379530	-0.70620257	-0.42691147	-0.26245159	-0.71452581	0.39008405	0.18613167	-0.61660360	-0.28180015	0.28225367	-0.91824382	-0.29969453	-0.07578696	-0.71857066	-0.20408189	-0.39164398
5908	59.07000000	0.93783032	0.20261239	0.03890521	-0.71344622	0.15494227	-0.65569592	-0.23239134	-0.81585352	0.10149815	-0.71147487	-0.41936006	-0.26615181	-0.70339752	0.40577766	0.19493078	-0.61525567	-0.29657660	0.27813645	-0.91996463	-0.29779584	-0.03742185	-0.72648805	-0.20513181	-0.39887847
5909	59.08000000	0.94101836	0.20495284	0.03463948	-0.71010100	0.16064806	-0.64970636	-0.20656394	-0.82592357	0.10448883	-0.72525256	-0.40569447	-0.26275202	-0.70088440	0.41576523	0.20196586	-0.61997988	-0.30158307	0.27052389	-0.91967533	-0.29531615	0.00783429	-0.73124140	-0.20341222	-0.39552334
5910	59.09000000	0.93371173	0.21033437	0.03753189	-0.71574858	0.16883537	-0.64737559	-0.18522950	-0.82447623	0.11007813	-0.72285708	-0.39160101	-0.25962467	-0.69873313	0.42063249	0.19996928	-0.61394002	-0.29782187	0.27810869	-0.91648501	-0.29152782	0.05018911	-0.72853019	-0.20089917	-0.39353337
5911	59.10000000	0.94045773	0.21092456	0.03498168	-0.71604208	0.16833569	-0.64373704	-0.16023974	-0.82877019	0.10905117	-0.73268194	-0.37493461	-0.26186738	-0.69203451	0.42972144	0.20408352	-0.61133488	-0.28855353	0.28341529	-0.90972831	-0.29071284	0.09514887	-0.73689288	-0.20166490	-0.38796570
5912	59.11000000	0.94160705	0.20707736	0.02885282	-0.71452124	0.17464799	-0.64347269	-0.14091125	-0.83741010	0.10572256	-0.74637205	-0.35598432	-0.26377021	-0.68168589	0.43558607	0.20623986	-0.61262415	-0.27359545	0.28075486	-0.89997772	-0.29375663	0.13822937	-0.74247084	-0.19826882	-0.39649488
5913	59.12000000	0.93806876	0.21422003	0.02831657	-0.71471847	0.18255615	-0.64256355	-0.11978953	-0.83712478	0.10477362	-0.75380074	-0.34413912	-0.26122109	-0.68076664	0.44432683	0.20471432	-0.61124119	-0.25849596	0.29774951	-0.88738666	-0.30223270	0.18623039	-0.74756138	-0.20086818	-0.39015118
5914	59.13000000	0.93689876	0.21382340	0.03029969	-0.72046475	0.18496186	-0.64458882	-0.09649690	-0.83464350	0.11990972	-0.76352584	-0.32964633	-0.25523155	-0.68130951	0.45213594	0.19627252	-0.60501932	-0.24177755	0.30380990	-0.87261452	-0.31421006	0.23295795	-0.74852832	-0.20007959	-0.39197766
5915	59.14000000	0.93454256	0.21339355	0.02501236	-0.72265342	0.18505697	-0.64065581	-0.08043988	-0.84194813	0.13094576	-0.77722760	-0.31367661	-0.24412120	-0.67810493	0.45355851	0.19863333	-0.60147509	-0.23620433	0.30835472	-0.85049988	-0.32502326	0.27918767	-0.74293511	-0.19667996	-0.38728897
5916	59.15000000	0.93818821	0.21799147	0.01834192	-0.71281538	0.18358223	-0.63778873	-0.06469250	-0.83780773	0.13186347	-0.77606484	-0.29700523	-0.24163733	-0.67593091	0.46230623	0.20314762	-0.60022493	-0.23140353	0.31193077	-0.82577950	-0.33974236	0.32358846	-0.74778553	-0.19423365	-0.38413236
5917	59.16000000	0.93450756	0.21864763	0.02222045	-0.72132776	0.18076944	-0.64060141	-0.04802125	-0.83334742	0.14119719	-0.78784851	-0.28244620	-0.24325780	-0.66882820	0.46631442	0.20614898	-0.60029434	-0.23039864	0.31486525	-0.79494191	-0.35264421	0.37541760	-0.75424380	-0.20097259	-0.37739729
5918	59.17000000	0.93531334	0.22085258	0.02257507	-0.72390806	0.18288001	-0.63828447	-0.02976272	-0.83126996	0.15291443	-0.79239586	-0.26321982	-0.23455158	-0.66825626	0.46929030	0.21006852	-0.59634575	-0.22307068	0.31852374	-0.76874343	-0.35816801	0.42062442	-0.75634874	-0.20509052	-0.37356619
5919	59.18000000	0.94084432	0.22958962	0.02020225	-0.72183812	0.18280196	-0.63592784	-0.01961091	-0.83245174	0.16876608	-0.80346602	-0.25098221	-0.22874354	-0.66551687	0.47061665	0.21820064	-0.59189416	-0.22086754	0.31762264	-0.75077783	-0.36509963	0.45689090	-0.75384059	-0.20222341	-0.37234983
5920	59.19000000	0.93823368	0.23095009	0.02058489	-0.72040859	0.18637507	-0.64094205	-0.01239804	-0.83162800	0.17470251	-0.80677542	-0.23369495	-0.22354728	-0.66640497	0.47716281	0.22233236	-0.59032959	-0.21900666	0.31841406	-0.73691615	-0.37824183	0.46094438	-0.75553110	-0.20417405	-0.37155378
5921	59.20000000	0.93569866	0.23075944	0.02049960	-0.72256046	0.18855237	-0.63845525	-0.01516595	-0.83108057	0.18846155	-0.81874540	-0.21749036	-0.21412161	-0.65883419	0.47666687	0.22444563	-0.58566045	-0.21331585	0.32555015	-0.73503473	-0.38748784	0.44073685	-0.75976204	-0.20767071	-0.36583677
5922	59.21000000	0.93298943	0.23715009	0.01994839	-0.72045894	0.18724487	-0.63571533	-0.01129552	-0.82377923	0.19693963	-0.82629352	-0.20085043	-0.21656323	-0.65598411	0.47827820	0.21964605	-0.58802154	-0.20977745	0.33529584	-0.73398929	-0.40490277	0.41649306	-0.76129645	-0.20786372	-0.35954263
